<svg width="703" height="138" viewBox="0 0 703 138" fill="none" xmlns="http://www.w3.org/2000/svg">
<path d="M208.277 103.235C204.604 103.235 201.073 102.665 197.685 101.525C194.328 100.353 191.383 98.6908 188.85 96.5375C186.317 94.3525 184.496 91.74 183.387 88.7L194.265 84.71C194.708 85.9767 195.611 87.1325 196.972 88.1775C198.334 89.2225 199.997 90.0617 201.96 90.695C203.923 91.3283 206.029 91.645 208.277 91.645C210.589 91.645 212.742 91.2967 214.737 90.6C216.764 89.8717 218.395 88.8742 219.63 87.6075C220.865 86.3092 221.482 84.805 221.482 83.095C221.482 81.3533 220.833 79.9283 219.535 78.82C218.237 77.68 216.574 76.7775 214.547 76.1125C212.521 75.4475 210.431 74.9408 208.277 74.5925C203.559 73.8642 199.332 72.74 195.595 71.22C191.858 69.7 188.897 67.5942 186.712 64.9025C184.559 62.2108 183.482 58.7275 183.482 54.4525C183.482 50.4308 184.638 46.9158 186.95 43.9075C189.262 40.8992 192.302 38.5558 196.07 36.8775C199.838 35.1992 203.907 34.36 208.277 34.36C211.919 34.36 215.434 34.93 218.822 36.07C222.211 37.21 225.172 38.8725 227.705 41.0575C230.27 43.2425 232.107 45.8708 233.215 48.9425L222.29 52.885C221.847 51.6183 220.944 50.4625 219.582 49.4175C218.221 48.3725 216.558 47.5492 214.595 46.9475C212.632 46.3142 210.526 45.9975 208.277 45.9975C206.029 45.9658 203.892 46.33 201.865 47.09C199.87 47.8183 198.239 48.8158 196.972 50.0825C195.706 51.3492 195.072 52.8058 195.072 54.4525C195.072 56.5742 195.658 58.1733 196.83 59.25C198.033 60.3267 199.632 61.1183 201.627 61.625C203.622 62.1 205.839 62.5433 208.277 62.955C212.711 63.6517 216.812 64.8233 220.58 66.47C224.348 68.1167 227.372 70.3175 229.652 73.0725C231.932 75.7958 233.072 79.1367 233.072 83.095C233.072 87.1167 231.932 90.6475 229.652 93.6875C227.372 96.6958 224.348 99.0392 220.58 100.717C216.812 102.396 212.711 103.235 208.277 103.235ZM263.035 103.235C258.665 103.235 254.675 102.111 251.065 99.8625C247.487 97.6142 244.621 94.59 242.468 90.79C240.346 86.99 239.285 82.7942 239.285 78.2025C239.285 74.7508 239.903 71.5208 241.138 68.5125C242.373 65.4725 244.067 62.8125 246.22 60.5325C248.405 58.2208 250.939 56.4158 253.82 55.1175C256.702 53.8192 259.774 53.17 263.035 53.17C266.74 53.17 270.129 53.9617 273.2 55.545C276.304 57.0967 278.932 59.2342 281.085 61.9575C283.239 64.6808 284.806 67.7842 285.788 71.2675C286.769 74.7508 286.991 78.3925 286.453 82.1925H251.73C252.174 83.9658 252.902 85.565 253.915 86.99C254.929 88.3833 256.211 89.5075 257.763 90.3625C259.314 91.1858 261.072 91.6133 263.035 91.645C265.062 91.6767 266.899 91.2017 268.545 90.22C270.224 89.2067 271.617 87.845 272.725 86.135L284.553 88.89C282.621 93.1017 279.739 96.5533 275.908 99.245C272.076 101.905 267.785 103.235 263.035 103.235ZM251.35 73.5H274.72C274.372 71.6 273.628 69.89 272.488 68.37C271.379 66.8183 270.002 65.5833 268.355 64.665C266.709 63.7467 264.935 63.2875 263.035 63.2875C261.135 63.2875 259.378 63.7467 257.763 64.665C256.148 65.5517 254.77 66.7708 253.63 68.3225C252.522 69.8425 251.762 71.5683 251.35 73.5ZM294.229 102L294.181 54.5H305.771L305.819 58.7275C307.434 57.0175 309.365 55.6717 311.614 54.69C313.862 53.6767 316.285 53.17 318.881 53.17C320.623 53.17 322.365 53.4233 324.106 53.93L319.546 65.615C318.343 65.14 317.14 64.9025 315.936 64.9025C314.068 64.9025 312.358 65.3617 310.806 66.28C309.286 67.1667 308.067 68.3858 307.149 69.9375C306.262 71.4575 305.819 73.1517 305.819 75.02V102H294.229ZM360.136 102H345.174L327.884 54.4525H340.234L352.679 88.6525L365.076 54.4525H377.426L360.136 102ZM403.494 103.235C399.124 103.235 395.134 102.111 391.524 99.8625C387.946 97.6142 385.08 94.59 382.927 90.79C380.805 86.99 379.744 82.7942 379.744 78.2025C379.744 74.7508 380.362 71.5208 381.597 68.5125C382.832 65.4725 384.526 62.8125 386.679 60.5325C388.864 58.2208 391.398 56.4158 394.279 55.1175C397.161 53.8192 400.233 53.17 403.494 53.17C407.199 53.17 410.588 53.9617 413.659 55.545C416.763 57.0967 419.391 59.2342 421.544 61.9575C423.698 64.6808 425.265 67.7842 426.247 71.2675C427.228 74.7508 427.45 78.3925 426.912 82.1925H392.189C392.633 83.9658 393.361 85.565 394.374 86.99C395.388 88.3833 396.67 89.5075 398.222 90.3625C399.773 91.1858 401.531 91.6133 403.494 91.645C405.521 91.6767 407.358 91.2017 409.004 90.22C410.683 89.2067 412.076 87.845 413.184 86.135L425.012 88.89C423.08 93.1017 420.198 96.5533 416.367 99.245C412.535 101.905 408.244 103.235 403.494 103.235ZM391.809 73.5H415.179C414.831 71.6 414.087 69.89 412.947 68.37C411.838 66.8183 410.461 65.5833 408.814 64.665C407.168 63.7467 405.394 63.2875 403.494 63.2875C401.594 63.2875 399.837 63.7467 398.222 64.665C396.607 65.5517 395.229 66.7708 394.089 68.3225C392.981 69.8425 392.221 71.5683 391.809 73.5ZM434.688 102L434.64 54.5H446.23L446.278 58.7275C447.893 57.0175 449.824 55.6717 452.073 54.69C454.321 53.6767 456.744 53.17 459.34 53.17C461.082 53.17 462.824 53.4233 464.565 53.93L460.005 65.615C458.802 65.14 457.599 64.9025 456.395 64.9025C454.527 64.9025 452.817 65.3617 451.265 66.28C449.745 67.1667 448.526 68.3858 447.608 69.9375C446.721 71.4575 446.278 73.1517 446.278 75.02V102H434.688ZM469.894 102V35.5H509.177V47.09H481.484V60.58H504.617V72.17H481.484V102H469.894ZM533.192 103.235C528.822 103.235 524.832 102.111 521.222 99.8625C517.643 97.6142 514.777 94.6058 512.624 90.8375C510.502 87.0375 509.442 82.8417 509.442 78.25C509.442 74.7667 510.059 71.5208 511.294 68.5125C512.529 65.4725 514.223 62.8125 516.377 60.5325C518.562 58.2208 521.095 56.4158 523.977 55.1175C526.858 53.8192 529.93 53.17 533.192 53.17C537.562 53.17 541.536 54.2942 545.114 56.5425C548.724 58.7908 551.59 61.815 553.712 65.615C555.865 69.415 556.942 73.6267 556.942 78.25C556.942 81.7017 556.324 84.9317 555.089 87.94C553.854 90.9483 552.144 93.6083 549.959 95.92C547.806 98.2 545.288 99.9892 542.407 101.287C539.557 102.586 536.485 103.235 533.192 103.235ZM533.192 91.645C535.503 91.645 537.577 91.0275 539.414 89.7925C541.251 88.5575 542.692 86.9267 543.737 84.9C544.813 82.8733 545.352 80.6567 545.352 78.25C545.352 75.78 544.797 73.5317 543.689 71.505C542.612 69.4467 541.14 67.8158 539.272 66.6125C537.435 65.3775 535.408 64.76 533.192 64.76C530.912 64.76 528.853 65.3775 527.017 66.6125C525.18 67.8475 523.723 69.4942 522.647 71.5525C521.57 73.6108 521.032 75.8433 521.032 78.25C521.032 80.7517 521.586 83.0158 522.694 85.0425C523.802 87.0692 525.275 88.6842 527.112 89.8875C528.98 91.0592 531.007 91.645 533.192 91.645ZM564.385 102L564.337 54.5H575.927L575.975 58.7275C577.59 57.0175 579.522 55.6717 581.77 54.69C584.018 53.6767 586.441 53.17 589.037 53.17C590.779 53.17 592.521 53.4233 594.262 53.93L589.702 65.615C588.499 65.14 587.296 64.9025 586.092 64.9025C584.224 64.9025 582.514 65.3617 580.962 66.28C579.442 67.1667 578.223 68.3858 577.305 69.9375C576.418 71.4575 575.975 73.1517 575.975 75.02V102H564.385ZM632.61 54.5H644.2V102.903C644.2 106.323 643.503 109.426 642.11 112.213C640.716 115.031 638.816 117.438 636.41 119.433C634.003 121.459 631.248 123.011 628.145 124.088C625.041 125.196 621.78 125.75 618.36 125.75C615.035 125.75 611.836 125.069 608.765 123.708C605.693 122.346 602.97 120.478 600.595 118.103C598.251 115.759 596.462 113.083 595.227 110.075L605.82 105.278C606.453 107.019 607.403 108.539 608.67 109.838C609.968 111.168 611.456 112.197 613.135 112.925C614.813 113.685 616.555 114.065 618.36 114.065C620.196 114.065 621.954 113.812 623.632 113.305C625.342 112.798 626.878 112.054 628.24 111.073C629.601 110.123 630.662 108.951 631.422 107.558C632.214 106.196 632.61 104.644 632.61 102.903V96.205C631.121 98.295 629.253 99.9892 627.005 101.287C624.756 102.586 622.16 103.235 619.215 103.235C615.795 103.235 612.596 102.586 609.62 101.287C606.643 99.9892 604.015 98.2 601.735 95.92C599.486 93.6083 597.713 90.9483 596.415 87.94C595.148 84.9317 594.515 81.7017 594.515 78.25C594.515 74.7983 595.148 71.5683 596.415 68.56C597.713 65.5517 599.486 62.9075 601.735 60.6275C604.015 58.3158 606.643 56.5108 609.62 55.2125C612.596 53.9142 615.795 53.265 619.215 53.265C622.16 53.265 624.756 53.9142 627.005 55.2125C629.253 56.4792 631.121 58.1575 632.61 60.2475V54.5ZM619.357 92.0725C621.796 92.0725 623.949 91.455 625.817 90.22C627.717 88.9533 629.206 87.275 630.282 85.185C631.359 83.0633 631.897 80.7517 631.897 78.25C631.897 75.7167 631.343 73.405 630.235 71.315C629.158 69.225 627.67 67.5467 625.77 66.28C623.901 65.0133 621.764 64.38 619.357 64.38C616.982 64.38 614.813 65.0133 612.85 66.28C610.886 67.515 609.319 69.1775 608.147 71.2675C606.976 73.3575 606.39 75.685 606.39 78.25C606.39 80.815 606.976 83.1425 608.147 85.2325C609.319 87.3225 610.886 88.985 612.85 90.22C614.813 91.455 616.982 92.0725 619.357 92.0725ZM675.413 103.235C671.043 103.235 667.053 102.111 663.443 99.8625C659.865 97.6142 656.999 94.59 654.846 90.79C652.724 86.99 651.663 82.7942 651.663 78.2025C651.663 74.7508 652.281 71.5208 653.516 68.5125C654.751 65.4725 656.445 62.8125 658.598 60.5325C660.783 58.2208 663.317 56.4158 666.198 55.1175C669.08 53.8192 672.152 53.17 675.413 53.17C679.118 53.17 682.507 53.9617 685.578 55.545C688.682 57.0967 691.31 59.2342 693.463 61.9575C695.617 64.6808 697.184 67.7842 698.166 71.2675C699.147 74.7508 699.369 78.3925 698.831 82.1925H664.108C664.552 83.9658 665.28 85.565 666.293 86.99C667.307 88.3833 668.589 89.5075 670.141 90.3625C671.692 91.1858 673.45 91.6133 675.413 91.645C677.44 91.6767 679.277 91.2017 680.923 90.22C682.602 89.2067 683.995 87.845 685.103 86.135L696.931 88.89C694.999 93.1017 692.117 96.5533 688.286 99.245C684.454 101.905 680.163 103.235 675.413 103.235ZM663.728 73.5H687.098C686.75 71.6 686.006 69.89 684.866 68.37C683.757 66.8183 682.38 65.5833 680.733 64.665C679.087 63.7467 677.313 63.2875 675.413 63.2875C673.513 63.2875 671.756 63.7467 670.141 64.665C668.526 65.5517 667.148 66.7708 666.008 68.3225C664.9 69.8425 664.14 71.5683 663.728 73.5Z" fill="white"/>
<path d="M35.6066 0V47.0376H126.339V0H35.6066ZM0 6.51681C5.53118 21.5243 17.3098 32.117 30.2142 36.3821V6.51681H0ZM131.92 10.4358V38.6606C138.751 35.769 145.584 30.6198 152.414 23.5786C145.563 16.3958 138.842 12.381 131.92 10.4368L131.92 10.4358ZM59.8914 52.6089C56.0233 64.8772 49.0999 75.3716 40.6004 84.5945L122.687 84.5938C113.549 75.3563 106.785 64.8383 103.108 52.6089H59.8917H59.8914ZM27.0602 90.5433V104.481H134.526V90.5433H27.0602Z" fill="white"/>
<path d="M89.1991 127.2C88.4273 124.224 86.1018 121.899 83.1254 121.129V110.2H78.8753V121.129C75.8986 121.899 73.5734 124.224 72.8016 127.2H30V131.45H72.8014C73.7497 135.101 77.0434 137.829 81.0002 137.829C84.9571 137.829 88.2508 135.101 89.1991 131.45H132V127.2H89.1991Z" fill="white"/>
</svg>
